HIERARCHY
ROOT Hips
{
     OFFSET 8.02635 95.68680 -10.31640
     CHANNELS 6 Xposition Yposition Zposition Zrotation Xrotation Yrotation
     JOINT Spine
     {
          OFFSET 0.00000 11.89050 0.00000
          CHANNELS 3 Zrotation Xrotation Yrotation
          JOINT Spine1
          {
               OFFSET 0.00000 25.65740 0.12766
               CHANNELS 3 Zrotation Xrotation Yrotation
               JOINT HEad
               {
                    OFFSET 0.00000 8.73416 0.01134
                    CHANNELS 3 Zrotation Xrotation Yrotation
                    End Site
                    {
                         OFFSET -0.29000 12.77420 2.51395
                    }
               }
               JOINT LeftShoulder1
               {
                    OFFSET 8.99000 -0.36225 -0.22000
                    CHANNELS 3 Zrotation Xrotation Yrotation
                    JOINT LeftArm
                    {
                         OFFSET 10.28270 -0.00338 0.32212
                         CHANNELS 3 Zrotation Xrotation Yrotation
                         JOINT LeftForeArm
                         {
                              OFFSET 32.76690 0.09914 -1.42434
                              CHANNELS 3 Zrotation Xrotation Yrotation
                              JOINT LeftHand
                              {
                                   OFFSET 27.56430 0.08536 1.02216
                                   CHANNELS 3 Zrotation Xrotation Yrotation
                                   End Site
                                   {
                                        OFFSET 16.74430 -0.60000 1.50291
                                   }
                              }
                         }
                    }
               }
               JOINT RightShoulder
               {
                    OFFSET -8.99000 -0.36225 -0.22000
                    CHANNELS 3 Zrotation Xrotation Yrotation
                    JOINT RightArm
                    {
                         OFFSET -10.28270 -0.00338 0.32212
                         CHANNELS 3 Zrotation Xrotation Yrotation
                         JOINT RightForeArm
                         {
                              OFFSET -32.89710 0.09914 -1.42434
                              CHANNELS 3 Zrotation Xrotation Yrotation
                              JOINT RightHand
                              {
                                   OFFSET -27.49210 0.08536 1.02216
                                   CHANNELS 3 Zrotation Xrotation Yrotation
                                   End Site
                                   {
                                        OFFSET -16.63120 -0.60000 1.50291
                                   }
                              }
                         }
                    }
               }
          }
     }
     JOINT LeftUpLeg
     {
          OFFSET 8.94580 -8.66707 0.10165
          CHANNELS 3 Zrotation Xrotation Yrotation
          JOINT LeftLeg
          {
               OFFSET 0.00000 -44.42270 1.37270
               CHANNELS 3 Zrotation Xrotation Yrotation
               JOINT LeftFoot
               {
                    OFFSET -0.25355 -42.09240 -1.46059
                    CHANNELS 3 Zrotation Xrotation Yrotation
                    JOINT LeftToes
                    {
                         OFFSET -0.04000 -4.41509 8.49910
                         CHANNELS 3 Zrotation Xrotation Yrotation
                         End Site
                         {
                              OFFSET 0.08000 -0.04745 9.77979
                         }
                    }
               }
          }
     }
     JOINT RightUpLeg
     {
          OFFSET -8.94580 -8.66707 0.10165
          CHANNELS 3 Zrotation Xrotation Yrotation
          JOINT RightLeg
          {
               OFFSET 0.00000 -44.42270 1.37270
               CHANNELS 3 Zrotation Xrotation Yrotation
               JOINT RightFoot
               {
                    OFFSET 0.25355 -42.09240 -1.46059
                    CHANNELS 3 Zrotation Xrotation Yrotation
                    JOINT RightToes
                    {
                         OFFSET 0.04000 -4.41509 8.49910
                         CHANNELS 3 Zrotation Xrotation Yrotation
                         End Site
                         {
                              OFFSET -0.08000 -0.13745 9.77979
                         }
                    }
               }
          }
     }
}
MOTION
Frames: 10
Frame Time: 0.01667
23.40900 95.34910 45.27760 -8.27034 -10.30640 -33.93740 -2.73872 10.01030 -0.15656 -2.08073 19.70560 -0.20832 -3.42613 1.10807 11.50010 0.00000 0.00000 0.00000 -138.25600 -64.71600 -113.24500 -44.91540 62.62040 -74.62130 17.92430 7.23709 -13.32850 15.45000 0.77626 1.73950 82.34160 -2.22097 70.11270 12.30210 32.14850 104.35300 16.80010 11.56950 6.66218 17.35640 -6.92965 -11.43050 -23.75220 9.61746 66.36900 -0.58350 11.47990 0.01256 3.87591 -24.81600 -65.06740 -27.04920 4.95711 16.02260 38.16580 6.87614 -32.65940 -32.64940 5.45429 3.75324 6.74713 -44.69630 9.94240 
23.40900 95.34910 45.27760 -8.27034 -10.30640 -33.93740 -2.73872 10.01030 -0.15656 -2.08073 19.70560 -0.20832 -3.42613 1.10807 11.50010 0.00000 0.00000 0.00000 -138.25600 -64.71600 -113.24500 -44.91540 62.62040 -74.62130 17.92430 7.23709 -13.32850 15.45000 0.77626 1.73950 82.34160 -2.22097 70.11270 12.30210 32.14850 104.35300 16.80010 11.56950 6.66218 17.35640 -6.92965 -11.43050 -23.75220 9.61746 66.36900 -0.58350 11.47990 0.01256 3.87591 -24.81600 -65.06740 -27.04920 4.95711 16.02260 38.16580 6.87614 -32.65940 -32.64940 5.45429 3.75324 6.74713 -44.69630 9.94240 
23.53300 95.24580 45.09780 -8.33259 -10.35030 -34.37330 -2.71634 10.03950 -0.07633 -2.10730 19.76340 -0.02162 -3.65299 1.07891 11.69280 0.00000 0.00000 0.00000 -138.42101 -64.76520 -113.30000 -44.76280 62.45590 -74.72990 18.16690 7.21436 -13.22890 15.45050 0.76117 1.65580 82.35410 -2.28330 70.11820 12.34960 32.17510 104.35300 16.81950 11.54640 6.49825 17.48020 -7.00927 -11.61490 -23.98900 9.66143 66.92400 -0.34198 11.58760 -0.02793 3.70167 -25.25950 -64.94810 -27.13950 4.78255 16.02990 38.37050 7.42979 -32.62340 -32.84480 5.31065 3.73461 6.75161 -45.30320 9.52616 
23.62860 95.16520 44.87270 -8.43765 -10.37290 -34.74790 -2.58714 10.04860 -0.02632 -2.10586 19.78980 0.14803 -3.90905 1.14548 11.86710 0.00000 0.00000 0.00000 -138.87000 -64.78340 -113.54300 -44.92170 62.38220 -74.48800 18.36480 7.19336 -13.16540 15.48090 0.75091 1.59377 82.39310 -2.43771 70.10920 12.47440 32.23020 104.35100 16.80430 11.51470 6.29982 17.67420 -7.02575 -11.74880 -24.15720 9.57487 67.34720 0.11484 11.77620 -0.10565 3.47684 -25.83210 -64.81260 -27.22650 4.51673 16.04560 38.64870 8.58491 -32.60060 -32.84540 5.34239 3.74417 6.78840 -46.05420 9.13502 
23.69370 95.10900 44.59630 -8.59024 -10.37420 -35.01570 -2.33505 10.03570 -0.03245 -2.05913 19.78450 0.25535 -4.11265 1.32855 12.00340 0.00000 0.00000 0.00000 -139.61900 -64.77890 -113.99800 -45.41290 62.40590 -73.87890 18.50830 7.17871 -13.11650 15.48770 0.75258 1.60184 82.45760 -2.70297 70.08150 12.61910 32.29890 104.36800 16.71880 11.48740 6.17251 17.95130 -6.97642 -11.82170 -24.25800 9.33654 67.62420 0.76663 12.06030 -0.21933 3.21507 -26.49280 -64.72270 -27.32690 4.18187 16.11480 39.03180 10.29650 -32.94470 -32.77140 5.46959 3.77297 6.91785 -46.96370 8.95192 
23.72460 95.06890 44.26450 -8.78710 -10.37050 -35.15370 -1.96660 10.00310 -0.10542 -1.96716 19.75820 0.28153 -4.19258 1.61743 12.08220 0.00000 0.00000 0.00000 -140.52699 -64.74660 -114.55100 -46.18260 62.48440 -72.95260 18.59010 7.17095 -13.08520 15.47870 0.76555 1.67519 82.50220 -3.04828 70.02700 12.71900 32.34450 104.44900 16.59970 11.47390 6.15539 18.31520 -6.86632 -11.85990 -24.32170 8.94693 67.80940 1.53051 12.43130 -0.35739 2.93781 -27.17330 -64.76750 -27.45850 3.84573 16.26370 39.51020 12.40590 -33.84280 -32.75480 5.62809 3.81816 7.16373 -47.91790 9.10127 
23.71880 95.03360 43.87810 -9.01179 -10.39120 -35.16600 -1.50858 9.95534 -0.23900 -1.85368 19.72660 0.23903 -4.14001 1.96395 12.07010 0.00000 0.00000 0.00000 -141.34599 -64.68170 -115.00300 -47.07030 62.54340 -71.83640 18.59870 7.16167 -13.13490 15.52430 0.77996 1.74689 82.46080 -3.41304 69.95020 12.74900 32.35050 104.61800 16.51850 11.47600 6.21972 18.74740 -6.70018 -11.91790 -24.38940 8.41998 67.95370 2.30422 12.83890 -0.50310 2.69041 -27.75190 -64.96710 -27.65150 3.57774 16.52280 40.05840 14.72060 -35.14250 -32.78540 5.81729 3.87846 7.50461 -48.71740 9.61201 
23.67280 94.98890 43.43770 -9.23003 -10.46940 -35.07430 -1.01192 9.89715 -0.42080 -1.75107 19.70230 0.14295 -4.00521 2.31522 11.96210 0.00000 0.00000 0.00000 -141.80099 -64.61030 -115.15200 -47.73780 62.51710 -70.82110 18.54340 7.14030 -13.32330 15.66990 0.78475 1.74768 82.29630 -3.73688 69.87590 12.74980 32.33850 104.81600 16.50210 11.49110 6.33022 19.20100 -6.49519 -12.03040 -24.48920 7.80417 68.03900 2.99094 13.20700 -0.63725 2.54489 -28.06340 -65.24130 -27.96090 3.43296 16.93830 40.67120 17.02230 -36.50390 -32.79980 6.14498 3.97810 7.90851 -49.28650 10.42100 
23.58350 94.92460 42.94030 -9.40886 -10.61340 -34.91000 -0.52991 9.83074 -0.63977 -1.67473 19.68560 -0.00353 -3.85828 2.65580 11.80380 0.00000 0.00000 0.00000 -141.25700 -64.59550 -114.48000 -47.53250 62.25220 -70.55570 18.46170 7.11657 -13.55410 15.89280 0.77535 1.65808 82.01410 -3.97040 69.82580 12.78260 32.32750 104.95500 16.53500 11.51240 6.45158 19.63720 -6.29056 -12.19070 -24.62690 7.17463 67.98510 3.49024 13.47780 -0.73769 2.58118 -27.94300 -65.45220 -28.42130 3.43377 17.51450 41.33560 19.12690 -37.65710 -32.78440 6.76175 4.16002 8.36740 -49.68050 11.46930 
23.45020 94.84300 42.38280 -9.54465 -10.79390 -34.71860 -0.08372 9.75686 -0.88485 -1.61593 19.67040 -0.19330 -3.75146 2.98493 11.67400 0.00000 0.00000 0.00000 -138.37100 -64.67680 -111.85400 -45.52380 61.35240 -72.02470 18.38280 7.12713 -13.56700 16.13110 0.75467 1.50734 81.64890 -4.08248 69.80100 12.85770 32.30570 105.00500 16.59640 11.53120 6.53824 20.05760 -6.11800 -12.35220 -24.77430 6.58735 67.73360 3.73001 13.66790 -0.78907 2.82622 -27.34090 -65.53100 -28.99400 3.55836 18.18460 41.97860 20.96870 -38.50610 -32.73690 7.68654 4.42885 8.84348 -49.81510 12.72010 
